<?xml version="1.0" encoding="iso-8859-1"?>
<!-- Generator: Adobe Illustrator 19.0.0, SVG Export Plug-In . SVG Version: 6.00 Build 0)  -->
<svg version="1.1" id="Layer_1" xmlns="http://www.w3.org/2000/svg" xmlns:xlink="http://www.w3.org/1999/xlink" x="0px" y="0px"
	 viewBox="0 0 460 460" style="enable-background:new 0 0 460 460;" xml:space="preserve">
<g>
	<path style="fill:#2DB8D4;" d="M230,0C102.974,0,0,102.975,0,230c0,20.179,2.608,39.748,7.489,58.397H230l229.172-38.829
		C459.717,243.118,460,236.592,460,230C460,102.975,357.026,0,230,0z"/>
	<path style="fill:#0C8FAA;" d="M230,308.397l222.511-20c3.286-12.557,5.537-25.532,6.661-38.829L230,20.397V308.397z"/>
	<polygon style="fill:#FFFFFF;" points="237.663,83.397 230,20.397 201,73.397 	"/>
	<polygon style="fill:#FFE1A0;" points="259,73.397 230,20.397 230,83.397 	"/>
	<polygon style="fill:#FFF0CF;" points="240,298.397 191,288.397 201,73.397 230,73.397 	"/>
	<polygon style="fill:#FFC240;" points="269,288.397 230,298.397 230,73.397 259,73.397 	"/>
	<rect x="289" y="258.397" style="fill:#FFE1A0;" width="20" height="30"/>
	<rect x="151" y="258.397" style="fill:#FFF0CF;" width="20" height="30"/>
	<rect x="329" y="258.397" style="fill:#FFE1A0;" width="20" height="40"/>
	<rect x="111" y="258.397" style="fill:#FFF0CF;" width="20" height="40"/>
	<path style="fill:#557714;" d="M7.489,288.397c15.207,58.102,52.564,107.241,102.507,137.85H240l-10-137.85H7.489z"/>
	<path style="fill:#405A0F;" d="M452.511,288.397c-15.207,58.102-52.564,107.241-102.507,137.85H230v-137.85H452.511z"/>
	<path style="fill:#FFFFFF;" d="M230,308.397h-88.528l-48.284,106.49c5.426,4.022,11.034,7.811,16.812,11.352L240,440L230,308.397z"
		/>
	<path style="fill:#FFF0CF;" d="M230,308.397h88.528l48.284,106.49c-5.426,4.022-11.034,7.811-16.812,11.352L230,440V308.397z"/>
	<path style="fill:#89EBFF;" d="M154.364,328.397L110,426.242C144.936,447.651,186.024,460,230,460l10-85.802l-5.338-45.802h-80.298
		V328.397z"/>
	<path style="fill:#2DB8D4;" d="M305.636,328.397H230V460c43.976,0,85.064-12.349,120-33.758L305.636,328.397z"/>
</g>
<g>
</g>
<g>
</g>
<g>
</g>
<g>
</g>
<g>
</g>
<g>
</g>
<g>
</g>
<g>
</g>
<g>
</g>
<g>
</g>
<g>
</g>
<g>
</g>
<g>
</g>
<g>
</g>
<g>
</g>
</svg>
